<svg width="48" height="48" viewBox="0 0 48 48" fill="none" xmlns="http://www.w3.org/2000/svg">
<path d="M24 27.3103L24 42.2069" stroke="#CFD2DA" stroke-width="1.98621" stroke-miterlimit="10"/>
<path d="M24 5.7931L24 20.6897" stroke="#CFD2DA" stroke-width="1.98621" stroke-miterlimit="10"/>
<path d="M26.8711 25.6577L39.7682 33.1034" stroke="#CFD2DA" stroke-width="1.98621" stroke-miterlimit="10"/>
<path d="M8.23193 14.8966L21.1158 22.3349" stroke="#CFD2DA" stroke-width="1.98621" stroke-miterlimit="10"/>
<path d="M21.1232 25.661L8.23193 33.1034" stroke="#CFD2DA" stroke-width="1.98621" stroke-miterlimit="10"/>
<path d="M39.7678 14.8966L26.8633 22.3473" stroke="#CFD2DA" stroke-width="1.98621" stroke-miterlimit="10"/>
<path d="M19.0347 7.44828L24.0002 12.4138L28.9657 7.44828" stroke="#CFD2DA" stroke-width="1.98621" stroke-miterlimit="10" stroke-linecap="square"/>
<path d="M19.0347 40.5517L24.0002 35.5862L28.9657 40.5517" stroke="#CFD2DA" stroke-width="1.98621" stroke-miterlimit="10" stroke-linecap="square"/>
<path d="M7.18262 20.0243L13.9663 18.2069L12.1481 11.424" stroke="#CFD2DA" stroke-width="1.98621" stroke-miterlimit="10" stroke-linecap="square"/>
<path d="M35.8519 36.576L34.0337 29.7931L40.8174 27.9757" stroke="#CFD2DA" stroke-width="1.98621" stroke-miterlimit="10" stroke-linecap="square"/>
<path d="M40.8174 20.0243L34.0337 18.2069L35.8519 11.424" stroke="#CFD2DA" stroke-width="1.98621" stroke-miterlimit="10" stroke-linecap="square"/>
<path d="M12.1481 36.576L13.9663 29.7931L7.18262 27.9757" stroke="#CFD2DA" stroke-width="1.98621" stroke-miterlimit="10" stroke-linecap="square"/>
<path d="M23.9998 27.3103C25.8281 27.3103 27.3101 25.8283 27.3101 24C27.3101 22.1717 25.8281 20.6897 23.9998 20.6897C22.1715 20.6897 20.6895 22.1717 20.6895 24C20.6895 25.8283 22.1715 27.3103 23.9998 27.3103Z" stroke="#CFD2DA" stroke-width="1.98621" stroke-miterlimit="10" stroke-linecap="square"/>
</svg>
