<svg width="48" height="48" viewBox="0 0 48 48" fill="none" xmlns="http://www.w3.org/2000/svg">
<path d="M24 13.2414C26.0568 13.2414 27.7242 11.574 27.7242 9.51724C27.7242 7.46046 26.0568 5.7931 24 5.7931C21.9432 5.7931 20.2759 7.46046 20.2759 9.51724C20.2759 11.574 21.9432 13.2414 24 13.2414Z" stroke="#CFD2DA" stroke-width="1.98621" stroke-miterlimit="10"/>
<path d="M38.8966 14.069L28.9656 17.3793H19.0346L9.10352 17.3793" stroke="#CFD2DA" stroke-width="1.98621" stroke-miterlimit="10" stroke-linecap="square"/>
<path d="M15.3228 31.8497L9.10352 38.069" stroke="#CFD2DA" stroke-width="1.98621" stroke-miterlimit="10"/>
<path d="M25.6553 42.2069L25.6553 34.1917" stroke="#CFD2DA" stroke-width="1.98621" stroke-miterlimit="10"/>
<path d="M19.0343 17.3793V20.5879C19.0342 21.3261 18.7873 22.043 18.333 22.6248C17.8786 23.2066 17.2428 23.6199 16.5267 23.7989L12.4136 24.8276C12.4137 26.7917 12.9962 28.7117 14.0874 30.3447C15.1786 31.9778 16.7296 33.2506 18.5442 34.0022C20.3588 34.7538 22.3556 34.9505 24.2819 34.5674C26.2083 34.1842 27.9778 33.2384 29.3667 31.8497L27.3101 23.1724L28.9653 17.3793" stroke="#CFD2DA" stroke-width="1.98621" stroke-miterlimit="10"/>
</svg>
