<svg width="24" height="24" viewBox="0 0 24 24" fill="none" xmlns="http://www.w3.org/2000/svg">
<path d="M11.143 12.8571C8.72243 12.8571 6.57528 13.404 5.16443 13.8797C4.123 14.232 3.42871 15.2134 3.42871 16.3131L3.42871 19.7143C3.42871 19.7143 11.9641 19.7143 12.0001 19.7143" stroke="#CFD2DA" stroke-width="2.05714" stroke-miterlimit="10"/>
<path d="M11.1426 12.8571C8.77608 12.8571 6.85693 10.0809 6.85693 7.71428V6.85714C6.85693 4.49057 8.77608 2.57143 11.1426 2.57143C13.5092 2.57143 15.4284 4.49057 15.4284 6.85714V7.71428C15.4284 10.0809 13.5092 12.8571 11.1426 12.8571Z" stroke="#CFD2DA" stroke-width="2.05714" stroke-miterlimit="10" stroke-linecap="square"/>
<path d="M21.4287 21.4286L18.9609 18.9609" stroke="#CFD2DA" stroke-width="2.05714" stroke-miterlimit="10"/>
<path d="M17.1427 19.7143C18.5629 19.7143 19.7141 18.563 19.7141 17.1429C19.7141 15.7227 18.5629 14.5714 17.1427 14.5714C15.7226 14.5714 14.5713 15.7227 14.5713 17.1429C14.5713 18.563 15.7226 19.7143 17.1427 19.7143Z" stroke="#CFD2DA" stroke-width="2.05714" stroke-miterlimit="10" stroke-linecap="square"/>
</svg>
