<svg width="213" height="320" viewBox="0 0 213 320" fill="none" xmlns="http://www.w3.org/2000/svg">
<g opacity="0.25" clip-path="url(#clip0_5_181)">
<path d="M243.139 112C216.739 66.2739 157.726 50.4616 112 76.8616C66.2741 103.262 50.4618 162.274 76.8618 208C103.262 253.726 162.274 269.538 208 243.138C253.726 216.738 269.839 158.246 243.139 112ZM145.158 219.492C141.659 219.433 139.08 216.765 139.549 213.377C140.25 186.991 128.598 160.81 105.043 135.611C102.614 133.203 103.192 129.405 105.08 127.276C107.488 124.846 111.286 125.425 113.416 127.313C138.73 154.96 151.623 183.889 150.822 213.103C151.323 216.971 148.246 219.441 145.158 219.492ZM173.871 216.424C169.813 215.996 166.414 213.108 166.692 208.791C167.562 178.497 151.919 141.803 128.605 120.622C125.876 117.694 125.334 113.157 128.262 110.428C131.189 107.698 135.727 107.157 138.456 110.085C165.099 135.232 182.283 175.194 181.284 210.065C181.335 213.154 177.929 216.853 173.871 216.424ZM197.444 203.854C197.992 168.203 173.751 122.616 151.406 101.915C147.707 98.5081 147.905 92.8512 150.793 89.4521C154.2 85.7531 159.857 85.9512 163.256 88.8385C189.189 113.357 215.42 162.991 214.934 204.148C214.955 208.985 210.769 213.134 205.672 213.306C201.614 212.877 197.465 208.691 197.444 203.854Z" fill="#9095A1"/>
</g>
<defs>
<clipPath id="clip0_5_181">
<rect width="234" height="234" fill="white" transform="translate(202.825 0.175049) rotate(60)"/>
</clipPath>
</defs>
</svg>
