<svg width="48" height="48" viewBox="0 0 48 48" fill="none" xmlns="http://www.w3.org/2000/svg">
<path d="M34.7585 14.069L28.9653 24.8276L19.0343 24.8276L13.2412 14.069" stroke="#CFD2DA" stroke-width="1.98621" stroke-miterlimit="10" stroke-linecap="square"/>
<path d="M19.0349 24.9468L19.8624 33.931L15.4903 34.5559C15.0959 34.6122 14.735 34.809 14.474 35.11C14.213 35.411 14.0693 35.7961 14.0693 36.1945L14.0693 42.2069" stroke="#CFD2DA" stroke-width="1.98621" stroke-miterlimit="10"/>
<path d="M33.9308 42.2069L33.9308 36.1945C33.9308 35.7961 33.7871 35.411 33.5261 35.11C33.2651 34.809 32.9042 34.6122 32.5098 34.5559L28.1377 33.931L28.9653 24.9468" stroke="#CFD2DA" stroke-width="1.98621" stroke-miterlimit="10"/>
<path d="M23.9998 20.6897C25.8281 20.6897 27.3101 19.2076 27.3101 17.3793C27.3101 15.5511 25.8281 14.069 23.9998 14.069C22.1715 14.069 20.6895 15.5511 20.6895 17.3793C20.6895 19.2076 22.1715 20.6897 23.9998 20.6897Z" stroke="#CFD2DA" stroke-width="1.98621" stroke-miterlimit="10" stroke-linecap="square"/>
<path d="M5.79297 9.93103L42.2068 9.93103" stroke="#CFD2DA" stroke-width="1.98621" stroke-miterlimit="10" stroke-linecap="square"/>
<path d="M8.27539 5.7931L8.27539 14.069" stroke="#CFD2DA" stroke-width="1.98621" stroke-miterlimit="10" stroke-linecap="square"/>
<path d="M39.7246 5.7931V14.069" stroke="#CFD2DA" stroke-width="1.98621" stroke-miterlimit="10" stroke-linecap="square"/>
</svg>
