<svg width="48" height="48" viewBox="0 0 48 48" fill="none" xmlns="http://www.w3.org/2000/svg">
<path d="M33.9309 26.4828C33.9309 29.1166 32.8846 31.6426 31.0222 33.5051C29.1598 35.3675 26.6338 36.4138 23.9999 36.4138C21.366 36.4138 18.84 35.3675 16.9776 33.5051C15.1152 31.6426 14.0688 29.1166 14.0688 26.4828L33.9309 26.4828Z" stroke="#CFD2DA" stroke-width="1.98621" stroke-miterlimit="10" stroke-linecap="square"/>
<path d="M33.9312 21.5172C33.9312 20.6393 33.5825 19.7973 32.9617 19.1765C32.3408 18.5557 31.4988 18.2069 30.6209 18.2069C29.7429 18.2069 28.9009 18.5557 28.2801 19.1765C27.6593 19.7973 27.3105 20.6393 27.3105 21.5172" stroke="#CFD2DA" stroke-width="1.98621" stroke-miterlimit="10" stroke-linecap="square"/>
<path d="M20.6895 21.5172C20.6895 20.6393 20.3408 19.7973 19.72 19.1765C19.0991 18.5557 18.2572 18.2069 17.3792 18.2069C16.5012 18.2069 15.6592 18.5557 15.0384 19.1765C14.4176 19.7973 14.0688 20.6393 14.0688 21.5172" stroke="#CFD2DA" stroke-width="1.98621" stroke-miterlimit="10" stroke-linecap="square"/>
<path d="M23.9999 41.3793C33.5982 41.3793 41.3792 33.5983 41.3792 24C41.3792 14.4017 33.5982 6.62069 23.9999 6.62069C14.4016 6.62069 6.62061 14.4017 6.62061 24C6.62061 33.5983 14.4016 41.3793 23.9999 41.3793Z" stroke="#CFD2DA" stroke-width="1.98621" stroke-miterlimit="10" stroke-linecap="square"/>
</svg>
