<svg width="48" height="48" viewBox="0 0 48 48" fill="none" xmlns="http://www.w3.org/2000/svg">
<path d="M23.9998 33.931C25.8281 33.931 27.3101 32.4489 27.3101 30.6207C27.3101 28.7924 25.8281 27.3103 23.9998 27.3103C22.1715 27.3103 20.6895 28.7924 20.6895 30.6207C20.6895 32.4489 22.1715 33.931 23.9998 33.931Z" stroke="#CFD2DA" stroke-width="1.98621" stroke-miterlimit="10" stroke-linecap="square"/>
<path d="M29.793 22.3448H34.7585" stroke="#CFD2DA" stroke-width="1.98621" stroke-miterlimit="10" stroke-linecap="square"/>
<path d="M13.2412 22.3448H18.2067" stroke="#CFD2DA" stroke-width="1.98621" stroke-miterlimit="10" stroke-linecap="square"/>
<path d="M23.9999 41.3793C33.5982 41.3793 41.3792 33.5983 41.3792 24C41.3792 14.4017 33.5982 6.62069 23.9999 6.62069C14.4016 6.62069 6.62061 14.4017 6.62061 24C6.62061 33.5983 14.4016 41.3793 23.9999 41.3793Z" stroke="#CFD2DA" stroke-width="1.98621" stroke-miterlimit="10" stroke-linecap="square"/>
<path d="M30.6206 31.4483C30.6206 29.7931 33.1034 26.4828 33.1034 26.4828C33.1034 26.4828 35.5861 29.7931 35.5861 31.4483C35.5861 32.1067 35.3245 32.7382 34.8589 33.2039C34.3933 33.6695 33.7618 33.931 33.1034 33.931C32.4449 33.931 31.8134 33.6695 31.3478 33.2039C30.8822 32.7382 30.6206 32.1067 30.6206 31.4483Z" fill="#CFD2DA"/>
<path d="M17.3791 31.4483C17.3791 29.7931 14.8963 26.4828 14.8963 26.4828C14.8963 26.4828 12.4136 29.7931 12.4136 31.4483C12.4136 32.1067 12.6751 32.7382 13.1408 33.2039C13.6064 33.6695 14.2379 33.931 14.8963 33.931C15.5548 33.931 16.1863 33.6695 16.6519 33.2039C17.1175 32.7382 17.3791 32.1067 17.3791 31.4483Z" fill="#CFD2DA"/>
</svg>
