<svg width="24" height="24" viewBox="0 0 24 24" fill="none" xmlns="http://www.w3.org/2000/svg">
<path d="M5.14272 20.5714H4.28557C3.83092 20.5714 3.39488 20.3908 3.07339 20.0693C2.7519 19.7478 2.57129 19.3118 2.57129 18.8571L2.57129 3.42857L9.42843 3.42857L11.9999 6.85714L21.4284 6.85714L21.4284 18.8571C21.4284 19.3118 21.2478 19.7478 20.9263 20.0693C20.6048 20.3908 20.1688 20.5714 19.7141 20.5714H18.857" stroke="#CFD2DA" stroke-width="2.05714" stroke-miterlimit="10" stroke-linecap="square"/>
<path d="M16.2856 17.5714V11.1429L10.2856 11.1429L10.2856 19.2857" stroke="#CFD2DA" stroke-width="2.05714" stroke-miterlimit="10"/>
<path d="M8.99979 21.4286C10.1833 21.4286 11.1426 20.4692 11.1426 19.2857C11.1426 18.1022 10.1833 17.1429 8.99979 17.1429C7.81632 17.1429 6.85693 18.1022 6.85693 19.2857C6.85693 20.4692 7.81632 21.4286 8.99979 21.4286Z" fill="#CFD2DA"/>
<path d="M14.9998 19.7143C16.1833 19.7143 17.1426 18.7549 17.1426 17.5714C17.1426 16.388 16.1833 15.4286 14.9998 15.4286C13.8163 15.4286 12.8569 16.388 12.8569 17.5714C12.8569 18.7549 13.8163 19.7143 14.9998 19.7143Z" fill="#CFD2DA"/>
</svg>
