<svg width="24" height="24" viewBox="0 0 24 24" fill="none" xmlns="http://www.w3.org/2000/svg">
<path d="M17.1428 14.8791C19.2856 12.5563 21.4285 9.64286 21.4285 7.28571C21.4274 6.28427 21.1073 5.3092 20.5148 4.50184C19.9223 3.69448 19.0881 3.09679 18.1331 2.79539C17.178 2.49398 16.1519 2.50453 15.2032 2.82551C14.2546 3.14648 13.4329 3.7612 12.8571 4.58057C12.2813 3.7612 11.4595 3.14648 10.5109 2.82551C9.56229 2.50453 8.5361 2.49398 7.58108 2.79539C6.62607 3.09679 5.79184 3.69448 5.19932 4.50184C4.60681 5.3092 4.28679 6.28427 4.28564 7.28571C4.2882 7.5228 4.30999 7.75929 4.35079 7.99286" stroke="#CFD2DA" stroke-width="2.05714" stroke-miterlimit="10" stroke-linecap="square"/>
<path d="M14.5705 18L14.5713 8.57143L5.99902 10.2857L5.99902 19.7143" stroke="#CFD2DA" stroke-width="2.05714" stroke-miterlimit="10"/>
<path d="M4.28509 21.4286C5.23186 21.4286 5.99937 20.6611 5.99937 19.7143C5.99937 18.7675 5.23186 18 4.28509 18C3.33831 18 2.5708 18.7675 2.5708 19.7143C2.5708 20.6611 3.33831 21.4286 4.28509 21.4286Z" stroke="#CFD2DA" stroke-width="2.05714" stroke-miterlimit="10"/>
<path d="M12.8574 19.7143C13.8041 19.7143 14.5716 18.9468 14.5716 18C14.5716 17.0532 13.8041 16.2857 12.8574 16.2857C11.9106 16.2857 11.1431 17.0532 11.1431 18C11.1431 18.9468 11.9106 19.7143 12.8574 19.7143Z" stroke="#CFD2DA" stroke-width="2.05714" stroke-miterlimit="10"/>
<path d="M6 13.7143L14.5714 12" stroke="#CFD2DA" stroke-width="2.05714" stroke-miterlimit="10"/>
</svg>
