<svg width="30" height="30" viewBox="0 0 30 30" fill="none" xmlns="http://www.w3.org/2000/svg">
<path d="M15 3C8.4 3 3 8.4 3 15C3 21.6 8.4 27 15 27C21.6 27 27 21.6 27 15C27 8.4 21.675 3 15 3ZM20.55 20.325C20.325 20.7 19.875 20.775 19.5 20.55C16.65 18.825 13.125 18.45 8.925 19.425C8.475 19.575 8.175 19.275 8.025 18.9C7.875 18.45 8.175 18.15 8.55 18C13.125 16.95 17.1 17.4 20.175 19.35C20.625 19.5 20.7 19.95 20.55 20.325ZM21.975 17.025C21.675 17.475 21.15 17.625 20.7 17.325C17.475 15.375 12.525 14.775 8.775 15.975C8.325 16.125 7.725 15.825 7.65 15.375C7.5 14.85 7.725 14.325 8.25 14.25C12.6 12.9 18 13.575 21.75 15.9C22.05 16.05 22.275 16.65 21.975 17.025ZM22.05 13.65C18.225 11.4 11.775 11.1 8.1 12.3C7.5 12.45 6.9 12.15 6.75 11.55C6.6 10.95 6.9 10.35 7.5 10.2C11.775 8.925 18.75 9.15 23.25 11.85C23.775 12.15 24 12.9 23.7 13.425C23.325 13.8 22.65 13.95 22.05 13.65Z" fill="#CFD2DA"/>
</svg>
