<svg width="222" height="160" viewBox="0 0 222 160" fill="none" xmlns="http://www.w3.org/2000/svg">
<path d="M55.6155 206.929C108.376 237.391 176.468 219.146 206.929 166.385C237.391 113.624 219.146 45.5326 166.385 15.071C113.624 -15.3905 45.5326 2.85447 15.0711 55.6154C-15.3904 108.376 2.25498 176.121 55.6155 206.929ZM91.5096 42.9892C95.0391 41.0299 99.1556 42.2075 100.642 45.8636C115.164 72.6342 141.912 92.0743 179.987 103.665C183.804 104.669 185.417 108.798 184.759 112.015C183.754 115.832 179.625 117.445 176.408 116.787C135.162 103.766 105.589 82.295 89.5346 52.6409C86.8026 49.0651 88.453 44.8218 91.5096 42.9892ZM64.5875 62.6197C68.8896 60.7067 73.9519 61.6309 76.1646 66.1061C92.7724 96.8789 129.574 124.522 165.09 132.236C169.507 133.587 172.665 137.809 171.314 142.225C169.964 146.641 165.742 149.8 161.326 148.449C120.194 138.691 79.9681 108.672 60.8477 73.251C59.0151 70.1945 60.2855 64.5326 64.5875 62.6197ZM48.2843 88.7807C68.304 124.721 118.827 156.289 153.098 164.084C158.76 165.354 161.826 171.121 160.901 176.184C159.631 181.845 153.864 184.911 148.802 183.987C108.743 174.449 53.8956 139.985 30.6371 98.5773C27.8249 93.756 29.6144 87.1948 34.6088 84.0828C38.9109 82.1698 45.4721 83.9594 48.2843 88.7807Z" fill="#9095A1"/>
</svg>
