<svg width="222" height="161" viewBox="0 0 222 161" fill="none" xmlns="http://www.w3.org/2000/svg">
<path d="M217.995 82.3308C202.227 23.4836 141.178 -11.7629 82.3308 4.00513C23.4836 19.7732 -11.7629 80.822 4.00514 139.669C19.7732 198.516 80.822 233.763 139.669 217.995C198.516 202.227 233.942 141.847 217.995 82.3308ZM76.6909 172.873C72.8098 171.762 70.7316 168.019 72.2658 164.383C80.927 135.184 75.7594 102.524 57.0319 67.4056C55.0433 63.9964 56.8222 59.9361 59.5627 58.1267C62.9719 56.1381 67.0322 57.9171 68.8416 60.6576C88.7994 99.0304 94.5285 135.124 84.9123 167.445C84.3156 171.905 80.1481 173.738 76.6909 172.873ZM109.609 178.029C105.214 176.339 102.288 172.106 103.888 167.377C113.904 133.874 107.428 88.3052 87.7689 57.7362C85.6011 53.6583 86.353 48.4397 90.4309 46.272C94.5088 44.1042 99.7274 44.8561 101.895 48.934C124.08 84.9183 131.297 134.589 119.771 173.156C118.905 176.613 114.003 179.718 109.609 178.029ZM139.635 171.058C150.893 131.488 137.489 73.4412 118.768 43.6961C115.663 38.7943 117.573 32.5487 121.806 29.6226C126.708 26.5173 132.954 28.4275 135.88 32.6605C157.461 67.7313 171.874 130.884 159.041 176.609C157.62 182.007 151.716 185.381 145.983 184.05C141.589 182.361 138.215 176.456 139.635 171.058Z" fill="#9095A1"/>
</svg>
