<svg width="208" height="222" viewBox="0 0 208 222" fill="none" xmlns="http://www.w3.org/2000/svg">
<path d="M-7.08892 148.885C13.748 206.134 77.6364 235.926 134.885 215.089C192.134 194.252 221.926 130.364 201.089 73.1147C180.252 15.8658 116.364 -13.9259 59.1148 6.91099C1.86583 27.7479 -28.1626 90.9858 -7.08892 148.885ZM125.786 46.3725C129.749 47.1403 132.146 50.6884 130.934 54.4447C124.851 84.2866 132.845 116.372 154.562 149.725C156.841 152.948 155.422 157.148 152.85 159.189C149.627 161.467 145.427 160.049 143.386 157.477C120.159 120.989 111.306 85.5327 118.069 52.4966C118.275 48.0013 122.267 45.8116 125.786 46.3725ZM92.5443 44.1051C97.0695 45.4051 100.353 49.367 99.1718 54.2174C92.1138 88.4661 102.537 133.297 124.785 162.036C127.3 165.91 127.006 171.174 123.132 173.689C119.259 176.204 113.995 175.91 111.48 172.036C86.2432 138.122 74.7245 89.2698 82.8457 49.8453C83.4066 46.3259 88.0191 42.8052 92.5443 44.1051ZM63.2394 53.6661C55.4733 94.0664 73.885 150.725 95.1273 178.725C98.648 183.337 97.2895 189.726 93.3275 193.01C88.7151 196.53 82.3267 195.172 79.0428 191.21C54.4867 158.153 34.6244 96.4976 43.4237 49.8274C44.3684 44.3264 49.9568 40.4505 55.7831 41.2769C60.3083 42.5768 64.1841 48.1651 63.2394 53.6661Z" fill="#9095A1"/>
</svg>
